<?xml version="1.0" encoding="UTF-8" standalone="no"?>
<!DOCTYPE svg PUBLIC "-//W3C//DTD SVG 1.0//EN"
 "http://www.w3.org/TR/2001/REC-SVG-20010904/DTD/svg10.dtd" [
 <!ATTLIST svg xmlns:xlink CDATA #FIXED "http://www.w3.org/1999/xlink">
]>
<!-- Generated by Graphviz version 2.12 (Tue Sep  4 16:56:48 UTC 2007)
     For user: (stephens) Kurt Stephens,,, -->
<!-- Title: Cabar Pages: 1 -->
<svg width="20.09in" height="9.30in"
 xmlns="http://www.w3.org/2000/svg" xmlns:xlink="http://www.w3.org/1999/xlink">
<g id="graph0" class="graph" transform="scale(1.33333 1.33333) rotate(0) translate(4 666)">
<title>Cabar</title>
<polygon style="fill:white;stroke:white;" points="-4,4 -4,-666 1443,-666 1443,4 -4,4"/>
<!-- C c1 1.0 -->
<g id="node1" class="node"><title>C c1 1.0</title>
<a xlink:href="file:///home/stephens/local/src/cabar/example/dev/c1" xlink:title="c1 &#45; requires on c2/1.2">
<polygon style="fill:none;stroke:black;" points="674,-584 602,-584 602,-476 674,-476 674,-584"/>
<text text-anchor="middle" x="638" y="-566" style="font-family:Nimbus Roman No9 L;font-weight:regular;font-size:11.34pt;">c1 1.0</text>
<text text-anchor="middle" x="638" y="-546" style="font-family:Nimbus Roman No9 L;font-weight:regular;font-size:11.34pt;">./dev/c1</text>
<text text-anchor="start" x="610" y="-526" style="font-family:Nimbus Roman No9 L;font-weight:regular;font-size:11.34pt;">* action</text>
<text text-anchor="start" x="610" y="-506" style="font-family:Nimbus Roman No9 L;font-weight:regular;font-size:11.34pt;">* bin</text>
<text text-anchor="start" x="610" y="-486" style="font-family:Nimbus Roman No9 L;font-weight:regular;font-size:11.34pt;">* lib/ruby</text>
</a>
</g>
<!-- C c2 1.2 -->
<g id="node3" class="node"><title>C c2 1.2</title>
<a xlink:href="file:///home/stephens/local/src/cabar/example/dev/c2/1.2" xlink:title="c2/1.2">
<polygon style="fill:none;stroke:black;" points="748,-400 666,-400 666,-312 748,-312 748,-400"/>
<text text-anchor="middle" x="707" y="-382" style="font-family:Nimbus Roman No9 L;font-weight:regular;font-size:11.34pt;">c2 1.2</text>
<text text-anchor="middle" x="707" y="-362" style="font-family:Nimbus Roman No9 L;font-weight:regular;font-size:11.34pt;">./dev/c2/1.2</text>
<text text-anchor="start" x="674" y="-342" style="font-family:Nimbus Roman No9 L;font-weight:regular;font-size:11.34pt;">* bin</text>
<text text-anchor="start" x="674" y="-322" style="font-family:Nimbus Roman No9 L;font-weight:regular;font-size:11.34pt;">* lib/ruby</text>
</a>
</g>
<!-- C c1 1.0&#45;&gt;C c2 1.2 -->
<g id="edge34" class="edge"><title>C c1 1.0&#45;&gt;C c2 1.2</title>
<path style="fill:none;stroke:black;" d="M659,-476C668,-455 677,-431 686,-409"/>
<polygon style="fill:black;stroke:black;" points="690,-400 690.051,-410.966 688.782,-402.741 685.939,-409.138 688.782,-402.741 681.826,-407.31 690,-400 690,-400"/>
</g>
<!-- C c3 2.1 -->
<g id="node5" class="node"><title>C c3 2.1</title>
<a xlink:href="file:///home/stephens/local/src/cabar/example/prod/c3" xlink:title="c3/2.1">
<polygon style="fill:none;stroke:black;" points="610,-420 490,-420 490,-292 610,-292 610,-420"/>
<text text-anchor="middle" x="550" y="-402" style="font-family:Nimbus Roman No9 L;font-weight:regular;font-size:11.34pt;">c3 2.1</text>
<text text-anchor="middle" x="550" y="-382" style="font-family:Nimbus Roman No9 L;font-weight:regular;font-size:11.34pt;">./prod/c3</text>
<text text-anchor="start" x="498" y="-362" style="font-family:Nimbus Roman No9 L;font-weight:regular;font-size:11.34pt;">* bin</text>
<text text-anchor="start" x="498" y="-342" style="font-family:Nimbus Roman No9 L;font-weight:regular;font-size:11.34pt;">* cnu_config_path</text>
<text text-anchor="start" x="498" y="-322" style="font-family:Nimbus Roman No9 L;font-weight:regular;font-size:11.34pt;">* include</text>
<text text-anchor="start" x="498" y="-302" style="font-family:Nimbus Roman No9 L;font-weight:regular;font-size:11.34pt;">* lib</text>
</a>
</g>
<!-- C c1 1.0&#45;&gt;C c3 2.1 -->
<g id="edge36" class="edge"><title>C c1 1.0&#45;&gt;C c3 2.1</title>
<path style="fill:none;stroke:black;" d="M602,-483C596,-475 591,-466 586,-458 581,-449 577,-439 573,-430"/>
<polygon style="fill:black;stroke:black;" points="570,-420 577.184,-428.285 570.862,-422.873 572.874,-429.578 570.862,-422.873 568.563,-430.871 570,-420 570,-420"/>
<a xlink:title="&gt;= 1.1">
</a>
<a xlink:title="&gt;= 1.1">
</a>
<text text-anchor="middle" x="608" y="-444" style="font-family:Nimbus Roman No9 L;font-weight:regular;font-size:11.34pt;">&gt;= 1.1</text>
</g>
<!-- C ruby 1.8.6.111 -->
<g id="node14" class="node"><title>C ruby 1.8.6.111</title>
<a xlink:href="file:///home/stephens/local/src/cabar/comp/ruby/std" xlink:title="Ruby &#45; /home/stephens/local/ruby/1.8.6&#45;p111/bin/ruby">
<polygon style="fill:none;stroke:black;" points="748,-88 476,-88 476,-2.84217e-14 748,-0 748,-88"/>
<text text-anchor="middle" x="612" y="-70" style="font-family:Nimbus Roman No9 L;font-weight:regular;font-size:11.34pt;">ruby 1.8.6.111</text>
<text text-anchor="middle" x="612" y="-50" style="font-family:Nimbus Roman No9 L;font-weight:regular;font-size:11.34pt;">/home/stephens/local/src/cabar/comp/ruby/std</text>
<text text-anchor="start" x="484" y="-30" style="font-family:Nimbus Roman No9 L;font-weight:regular;font-size:11.34pt;">* bin</text>
<text text-anchor="start" x="484" y="-10" style="font-family:Nimbus Roman No9 L;font-weight:regular;font-size:11.34pt;">* lib/ruby</text>
</a>
</g>
<!-- C c1 1.0&#45;&gt;C ruby 1.8.6.111 -->
<g id="edge38" class="edge"><title>C c1 1.0&#45;&gt;C ruby 1.8.6.111</title>
<path style="fill:none;stroke:black;" d="M635,-476C630,-383 620,-191 615,-98"/>
<polygon style="fill:black;stroke:black;" points="614,-88 619.473,-97.5026 614.299,-90.9851 614.995,-97.9504 614.299,-90.9851 610.517,-98.3982 614,-88 614,-88"/>
</g>
<!-- C c2 1.1 -->
<g id="node2" class="node"><title>C c2 1.1</title>
<a xlink:href="file:///home/stephens/local/src/cabar/example/dev/c2/1.1" xlink:title="c2/1.1">
<polygon style="fill:none;stroke:black;stroke-dasharray:1,5;" points="954,-400 872,-400 872,-312 954,-312 954,-400"/>
<text text-anchor="middle" x="913" y="-382" style="font-family:Nimbus Roman No9 L;font-weight:regular;font-size:11.34pt;">c2 1.1</text>
<text text-anchor="middle" x="913" y="-362" style="font-family:Nimbus Roman No9 L;font-weight:regular;font-size:11.34pt;">./dev/c2/1.1</text>
<text text-anchor="start" x="880" y="-342" style="font-family:Nimbus Roman No9 L;font-weight:regular;font-size:11.34pt;">* bin</text>
<text text-anchor="start" x="880" y="-322" style="font-family:Nimbus Roman No9 L;font-weight:regular;font-size:11.34pt;">* lib/ruby</text>
</a>
</g>
<!-- C c2 1.2&#45;&gt;C ruby 1.8.6.111 -->
<g id="edge40" class="edge"><title>C c2 1.2&#45;&gt;C ruby 1.8.6.111</title>
<path style="fill:none;stroke:black;" d="M702,-312C695,-261 681,-175 652,-106 651,-103 650,-100 648,-97"/>
<polygon style="fill:black;stroke:black;" points="643,-88 651.79,-94.5562 644.457,-90.6225 647.856,-96.7416 644.457,-90.6225 643.923,-98.927 643,-88 643,-88"/>
</g>
<!-- C c2 1.0 -->
<g id="node4" class="node"><title>C c2 1.0</title>
<a xlink:href="file:///home/stephens/local/src/cabar/example/prod/c2/1.0" xlink:title="c2/1.0">
<polygon style="fill:none;stroke:black;stroke-dasharray:1,5;" points="854,-390 766,-390 766,-322 854,-322 854,-390"/>
<text text-anchor="middle" x="810" y="-372" style="font-family:Nimbus Roman No9 L;font-weight:regular;font-size:11.34pt;">c2 1.0</text>
<text text-anchor="middle" x="810" y="-352" style="font-family:Nimbus Roman No9 L;font-weight:regular;font-size:11.34pt;">./prod/c2/1.0</text>
<text text-anchor="start" x="774" y="-332" style="font-family:Nimbus Roman No9 L;font-weight:regular;font-size:11.34pt;">* lib/ruby</text>
</a>
</g>
<!-- C cnu_config 1.0 -->
<g id="node7" class="node"><title>C cnu_config 1.0</title>
<a xlink:href="file:///home/stephens/local/src/cabar/example/prod/cnu_config/1.0" xlink:title="cnu_config/1.0">
<polygon style="fill:none;stroke:black;" points="473,-224 335,-224 335,-156 473,-156 473,-224"/>
<text text-anchor="middle" x="404" y="-206" style="font-family:Nimbus Roman No9 L;font-weight:regular;font-size:11.34pt;">cnu_config 1.0</text>
<text text-anchor="middle" x="404" y="-186" style="font-family:Nimbus Roman No9 L;font-weight:regular;font-size:11.34pt;">./prod/cnu_config/1.0</text>
<text text-anchor="start" x="343" y="-166" style="font-family:Nimbus Roman No9 L;font-weight:regular;font-size:11.34pt;">* lib/ruby</text>
</a>
</g>
<!-- C c3 2.1&#45;&gt;C cnu_config 1.0 -->
<g id="edge42" class="edge"><title>C c3 2.1&#45;&gt;C cnu_config 1.0</title>
<path style="fill:none;stroke:black;" d="M494,-292C476,-272 456,-250 441,-232"/>
<polygon style="fill:black;stroke:black;" points="434,-224 443.972,-228.563 435.976,-226.258 440.585,-231.526 435.976,-226.258 437.198,-234.489 434,-224 434,-224"/>
</g>
<!-- C c3 2.1&#45;&gt;C ruby 1.8.6.111 -->
<g id="edge44" class="edge"><title>C c3 2.1&#45;&gt;C ruby 1.8.6.111</title>
<path style="fill:none;stroke:black;" d="M563,-292C574,-235 591,-152 601,-98"/>
<polygon style="fill:black;stroke:black;" points="603,-88 605.451,-98.6884 602.412,-90.9417 601.039,-97.8058 602.412,-90.9417 596.626,-96.9233 603,-88 603,-88"/>
</g>
<!-- C cabar 1.0 -->
<g id="node6" class="node"><title>C cabar 1.0</title>
<a xlink:href="file:///home/stephens/local/src/cabar" xlink:title="Cabar &#45; Component Backplane Manager">
<polygon style="fill:none;stroke:black;stroke-dasharray:1,5;" points="1036,-254 850,-254 850,-126 1036,-126 1036,-254"/>
<text text-anchor="middle" x="943" y="-236" style="font-family:Nimbus Roman No9 L;font-weight:regular;font-size:11.34pt;">cabar 1.0</text>
<text text-anchor="middle" x="943" y="-216" style="font-family:Nimbus Roman No9 L;font-weight:regular;font-size:11.34pt;">/home/stephens/local/src/cabar</text>
<text text-anchor="start" x="858" y="-196" style="font-family:Nimbus Roman No9 L;font-weight:regular;font-size:11.34pt;">* action</text>
<text text-anchor="start" x="858" y="-176" style="font-family:Nimbus Roman No9 L;font-weight:regular;font-size:11.34pt;">* bin</text>
<text text-anchor="start" x="858" y="-156" style="font-family:Nimbus Roman No9 L;font-weight:regular;font-size:11.34pt;">* components</text>
<text text-anchor="start" x="858" y="-136" style="font-family:Nimbus Roman No9 L;font-weight:regular;font-size:11.34pt;">* lib/ruby</text>
</a>
</g>
<!-- C cabar 1.0&#45;&gt;C ruby 1.8.6.111 -->
<g id="edge46" class="edge"><title>C cabar 1.0&#45;&gt;C ruby 1.8.6.111</title>
<path style="fill:none;stroke:black;" d="M850,-129C835,-120 820,-113 805,-106 790,-99 774,-93 758,-87"/>
<polygon style="fill:black;stroke:black;" points="748,-83 758.956,-82.5358 750.785,-84.1142 757.285,-86.714 750.785,-84.1142 755.613,-90.8921 748,-83 748,-83"/>
</g>
<!-- C cnu_config 1.0&#45;&gt;C ruby 1.8.6.111 -->
<g id="edge48" class="edge"><title>C cnu_config 1.0&#45;&gt;C ruby 1.8.6.111</title>
<path style="fill:none;stroke:black;" d="M436,-156C452,-140 473,-120 493,-106 499,-102 506,-98 512,-93"/>
<polygon style="fill:black;stroke:black;" points="521,-88 514.444,-96.7902 518.378,-89.4569 512.258,-92.8565 518.378,-89.4569 510.073,-88.9228 521,-88 521,-88"/>
</g>
<!-- C cnu_customer 1.2 -->
<g id="node8" class="node"><title>C cnu_customer 1.2</title>
<a xlink:href="file:///home/stephens/local/src/cabar/example/prod/cnu_customer/1.2" xlink:title="cnu_customer/1.2">
<polygon style="fill:none;stroke:black;stroke-dasharray:1,5;" points="481,-584 327,-584 327,-476 481,-476 481,-584"/>
<text text-anchor="middle" x="404" y="-566" style="font-family:Nimbus Roman No9 L;font-weight:regular;font-size:11.34pt;">cnu_customer 1.2</text>
<text text-anchor="middle" x="404" y="-546" style="font-family:Nimbus Roman No9 L;font-weight:regular;font-size:11.34pt;">./prod/cnu_customer/1.2</text>
<text text-anchor="start" x="335" y="-526" style="font-family:Nimbus Roman No9 L;font-weight:regular;font-size:11.34pt;">* cnu_config_path</text>
<text text-anchor="start" x="335" y="-506" style="font-family:Nimbus Roman No9 L;font-weight:regular;font-size:11.34pt;">* cnu_locale_path</text>
<text text-anchor="start" x="335" y="-486" style="font-family:Nimbus Roman No9 L;font-weight:regular;font-size:11.34pt;">* lib/ruby</text>
</a>
</g>
<!-- C cnu_locale 1.1 -->
<g id="node9" class="node"><title>C cnu_locale 1.1</title>
<a xlink:href="file:///home/stephens/local/src/cabar/example/prod/cnu_locale/1.1" xlink:title="cnu_locale/1.1">
<polygon style="fill:none;stroke:black;stroke-dasharray:1,5;" points="472,-400 336,-400 336,-312 472,-312 472,-400"/>
<text text-anchor="middle" x="404" y="-382" style="font-family:Nimbus Roman No9 L;font-weight:regular;font-size:11.34pt;">cnu_locale 1.1</text>
<text text-anchor="middle" x="404" y="-362" style="font-family:Nimbus Roman No9 L;font-weight:regular;font-size:11.34pt;">./prod/cnu_locale/1.1</text>
<text text-anchor="start" x="344" y="-342" style="font-family:Nimbus Roman No9 L;font-weight:regular;font-size:11.34pt;">* cnu_config_path</text>
<text text-anchor="start" x="344" y="-322" style="font-family:Nimbus Roman No9 L;font-weight:regular;font-size:11.34pt;">* lib/ruby</text>
</a>
</g>
<!-- C cnu_customer 1.2&#45;&gt;C cnu_locale 1.1 -->
<g id="edge50" class="edge"><title>C cnu_customer 1.2&#45;&gt;C cnu_locale 1.1</title>
<path style="fill:none;stroke:black;" d="M404,-476C404,-455 404,-431 404,-410"/>
<polygon style="fill:black;stroke:black;" points="404,-400 408.5,-410 404,-403 404,-410 404,-403 399.5,-410 404,-400 404,-400"/>
<a xlink:title="= 1.1">
</a>
<a xlink:title="= 1.1">
</a>
<text text-anchor="middle" x="419" y="-444" style="font-family:Nimbus Roman No9 L;font-weight:regular;font-size:11.34pt;">= 1.1</text>
</g>
<!-- C cnu_locale 1.1&#45;&gt;C cnu_config 1.0 -->
<g id="edge52" class="edge"><title>C cnu_locale 1.1&#45;&gt;C cnu_config 1.0</title>
<path style="fill:none;stroke:black;" d="M404,-312C404,-288 404,-259 404,-234"/>
<polygon style="fill:black;stroke:black;" points="404,-224 408.5,-234 404,-227 404,-234 404,-227 399.5,-234 404,-224 404,-224"/>
</g>
<!-- C cnu_locale 1.1&#45;&gt;C ruby 1.8.6.111 -->
<g id="edge54" class="edge"><title>C cnu_locale 1.1&#45;&gt;C ruby 1.8.6.111</title>
<path style="fill:none;stroke:black;" d="M439,-312C453,-294 469,-273 482,-254 518,-202 556,-140 582,-97"/>
<polygon style="fill:black;stroke:black;" points="587,-88 586.077,-98.927 585.543,-90.6225 582.144,-96.7416 585.543,-90.6225 578.21,-94.5562 587,-88 587,-88"/>
</g>
<!-- C cnu_locale 2.0 -->
<g id="node10" class="node"><title>C cnu_locale 2.0</title>
<a xlink:href="file:///home/stephens/local/src/cabar/example/prod/cnu_locale/2.0" xlink:title="cnu_locale/2.0">
<polygon style="fill:none;stroke:black;stroke-dasharray:1,5;" points="210,-400 74,-400 74,-312 210,-312 210,-400"/>
<text text-anchor="middle" x="142" y="-382" style="font-family:Nimbus Roman No9 L;font-weight:regular;font-size:11.34pt;">cnu_locale 2.0</text>
<text text-anchor="middle" x="142" y="-362" style="font-family:Nimbus Roman No9 L;font-weight:regular;font-size:11.34pt;">./prod/cnu_locale/2.0</text>
<text text-anchor="start" x="82" y="-342" style="font-family:Nimbus Roman No9 L;font-weight:regular;font-size:11.34pt;">* cnu_config_path</text>
<text text-anchor="start" x="82" y="-322" style="font-family:Nimbus Roman No9 L;font-weight:regular;font-size:11.34pt;">* lib/ruby</text>
</a>
</g>
<!-- C cnu_locale 2.0&#45;&gt;C cnu_config 1.0 -->
<g id="edge56" class="edge"><title>C cnu_locale 2.0&#45;&gt;C cnu_config 1.0</title>
<path style="fill:none;stroke:black;" d="M193,-312C201,-305 210,-298 219,-292 253,-269 292,-247 326,-229"/>
<polygon style="fill:black;stroke:black;" points="335,-224 328.444,-232.79 332.378,-225.457 326.258,-228.856 332.378,-225.457 324.073,-224.923 335,-224 335,-224"/>
</g>
<!-- C cnu_locale 2.0&#45;&gt;C ruby 1.8.6.111 -->
<g id="edge58" class="edge"><title>C cnu_locale 2.0&#45;&gt;C ruby 1.8.6.111</title>
<path style="fill:none;stroke:black;" d="M166,-312C197,-260 254,-174 326,-126 368,-98 419,-79 466,-67"/>
<polygon style="fill:black;stroke:black;" points="476,-65 467.077,-71.3739 473.058,-65.5884 466.194,-66.9612 473.058,-65.5884 465.312,-62.5486 476,-65 476,-65"/>
</g>
<!-- C gems 1.0 -->
<g id="node11" class="node"><title>C gems 1.0</title>
<a xlink:href="file:///home/stephens/local/src/cabar/example/plat/gems/1.0" xlink:title="gems/1.0">
<polygon style="fill:none;stroke:black;stroke-dasharray:1,5;" points="107,-234 7,-234 7,-146 107,-146 107,-234"/>
<text text-anchor="middle" x="57" y="-216" style="font-family:Nimbus Roman No9 L;font-weight:regular;font-size:11.34pt;">gems 1.0</text>
<text text-anchor="middle" x="57" y="-196" style="font-family:Nimbus Roman No9 L;font-weight:regular;font-size:11.34pt;">./plat/gems/1.0</text>
<text text-anchor="start" x="15" y="-176" style="font-family:Nimbus Roman No9 L;font-weight:regular;font-size:11.34pt;">* gems</text>
<text text-anchor="start" x="15" y="-156" style="font-family:Nimbus Roman No9 L;font-weight:regular;font-size:11.34pt;">* lib/ruby</text>
</a>
</g>
<!-- C gems 1.0&#45;&gt;C ruby 1.8.6.111 -->
<g id="edge60" class="edge"><title>C gems 1.0&#45;&gt;C ruby 1.8.6.111</title>
<path style="fill:none;stroke:black;" d="M95,-146C110,-131 129,-115 149,-106 204,-81 352,-64 466,-54"/>
<polygon style="fill:black;stroke:black;" points="476,-53 466.497,-58.4728 473.015,-53.2985 466.05,-53.9951 473.015,-53.2985 465.602,-49.5175 476,-53 476,-53"/>
</g>
<!-- C perl 5.8.8 -->
<g id="node12" class="node"><title>C perl 5.8.8</title>
<a xlink:href="file:///home/stephens/local/src/cabar/comp/perl/std" xlink:title="Perl &#45; /usr/bin/perl">
<polygon style="fill:none;stroke:black;stroke-dasharray:1,5;" points="1439,-574 1171,-574 1171,-486 1439,-486 1439,-574"/>
<text text-anchor="middle" x="1305" y="-556" style="font-family:Nimbus Roman No9 L;font-weight:regular;font-size:11.34pt;">perl 5.8.8</text>
<text text-anchor="middle" x="1305" y="-536" style="font-family:Nimbus Roman No9 L;font-weight:regular;font-size:11.34pt;">/home/stephens/local/src/cabar/comp/perl/std</text>
<text text-anchor="start" x="1179" y="-516" style="font-family:Nimbus Roman No9 L;font-weight:regular;font-size:11.34pt;">* bin</text>
<text text-anchor="start" x="1179" y="-496" style="font-family:Nimbus Roman No9 L;font-weight:regular;font-size:11.34pt;">* lib/perl</text>
</a>
</g>
<!-- C ruby 1.8.4 -->
<g id="node13" class="node"><title>C ruby 1.8.4</title>
<a xlink:href="file:///home/stephens/local/src/cabar/example/plat/ruby/1.8.4" xlink:title="ruby/1.8.4">
<polygon style="fill:none;stroke:black;stroke-dasharray:1,5;" points="1075,-88 967,-88 967,-2.84217e-14 1075,-0 1075,-88"/>
<text text-anchor="middle" x="1021" y="-70" style="font-family:Nimbus Roman No9 L;font-weight:regular;font-size:11.34pt;">ruby 1.8.4</text>
<text text-anchor="middle" x="1021" y="-50" style="font-family:Nimbus Roman No9 L;font-weight:regular;font-size:11.34pt;">./plat/ruby/1.8.4</text>
<text text-anchor="start" x="975" y="-30" style="font-family:Nimbus Roman No9 L;font-weight:regular;font-size:11.34pt;">* bin</text>
<text text-anchor="start" x="975" y="-10" style="font-family:Nimbus Roman No9 L;font-weight:regular;font-size:11.34pt;">* lib/ruby</text>
</a>
</g>
<!-- C ruby 1.9 -->
<g id="node15" class="node"><title>C ruby 1.9</title>
<a xlink:href="file:///home/stephens/local/src/cabar/example/plat/ruby/1.9" xlink:title="ruby/1.9">
<polygon style="fill:none;stroke:black;stroke-dasharray:1,5;" points="1189,-88 1093,-88 1093,-2.84217e-14 1189,-0 1189,-88"/>
<text text-anchor="middle" x="1141" y="-70" style="font-family:Nimbus Roman No9 L;font-weight:regular;font-size:11.34pt;">ruby 1.9</text>
<text text-anchor="middle" x="1141" y="-50" style="font-family:Nimbus Roman No9 L;font-weight:regular;font-size:11.34pt;">./plat/ruby/1.9</text>
<text text-anchor="start" x="1101" y="-30" style="font-family:Nimbus Roman No9 L;font-weight:regular;font-size:11.34pt;">* bin</text>
<text text-anchor="start" x="1101" y="-10" style="font-family:Nimbus Roman No9 L;font-weight:regular;font-size:11.34pt;">* lib/ruby</text>
</a>
</g>
<!-- C rubygems 0.9.4 -->
<g id="node16" class="node"><title>C rubygems 0.9.4</title>
<a xlink:href="file:///home/stephens/local/src/cabar/comp/rubygems" xlink:title="Rubygems &#45; Cabar support facets">
<polygon style="fill:none;stroke:black;stroke-dasharray:1,5;" points="1252,-388 972,-388 972,-324 1252,-324 1252,-388"/>
<text text-anchor="middle" x="1112" y="-370" style="font-family:Nimbus Roman No9 L;font-weight:regular;font-size:11.34pt;">rubygems 0.9.4</text>
<text text-anchor="middle" x="1112" y="-350" style="font-family:Nimbus Roman No9 L;font-weight:regular;font-size:11.34pt;">/home/stephens/local/src/cabar/comp/rubygems</text>
</a>
</g>
<!-- C rubygems 0.9.4&#45;&gt;C cabar 1.0 -->
<g id="edge64" class="edge"><title>C rubygems 0.9.4&#45;&gt;C cabar 1.0</title>
<path style="fill:none;stroke:black;" d="M1079,-324C1061,-306 1037,-283 1015,-261"/>
<polygon style="fill:black;stroke:black;" points="1008,-254 1018.25,-257.889 1010.12,-256.121 1015.07,-261.071 1010.12,-256.121 1011.89,-264.253 1008,-254 1008,-254"/>
</g>
<!-- C rubygems 0.9.4&#45;&gt;C ruby 1.8.6.111 -->
<g id="edge62" class="edge"><title>C rubygems 0.9.4&#45;&gt;C ruby 1.8.6.111</title>
<path style="fill:none;stroke:black;" d="M1042,-324C1017,-313 989,-301 963,-292 910,-272 891,-282 841,-254 803,-231 719,-150 663,-95"/>
<polygon style="fill:black;stroke:black;" points="656,-88 666.253,-91.8891 658.121,-90.1213 663.071,-95.0711 658.121,-90.1213 659.889,-98.2531 656,-88 656,-88"/>
</g>
<!-- C c1 -->
<g id="node17" class="node"><title>C c1</title>
<ellipse style="fill:none;stroke:black;" cx="638" cy="-642" rx="27" ry="19.799"/>
<text text-anchor="middle" x="638" y="-638" style="font-family:Nimbus Roman No9 L;font-weight:regular;font-size:11.34pt;">c1</text>
</g>
<!-- C c1&#45;&gt;C c1 1.0 -->
<g id="edge2" class="edge"><title>C c1&#45;&gt;C c1 1.0</title>
<path style="fill:none;stroke:black;stroke-dasharray:1,5;" d="M638,-622C638,-614 638,-604 638,-594"/>
<polygon style="fill:black;stroke:black;" points="641.5,-594 638,-584 634.5,-594 641.5,-594"/>
</g>
<!-- C c2 -->
<g id="node19" class="node"><title>C c2</title>
<ellipse style="fill:none;stroke:black;" cx="810" cy="-530" rx="27" ry="19.799"/>
<text text-anchor="middle" x="810" y="-526" style="font-family:Nimbus Roman No9 L;font-weight:regular;font-size:11.34pt;">c2</text>
</g>
<!-- C c2&#45;&gt;C c2 1.1 -->
<g id="edge4" class="edge"><title>C c2&#45;&gt;C c2 1.1</title>
<path style="fill:none;stroke:black;stroke-dasharray:1,5;" d="M821,-511C836,-487 862,-444 882,-409"/>
<polygon style="fill:black;stroke:black;" points="885.203,-410.441 887,-400 879.084,-407.042 885.203,-410.441"/>
</g>
<!-- C c2&#45;&gt;C c2 1.2 -->
<g id="edge6" class="edge"><title>C c2&#45;&gt;C c2 1.2</title>
<path style="fill:none;stroke:black;stroke-dasharray:1,5;" d="M799,-511C784,-487 758,-444 738,-409"/>
<polygon style="fill:black;stroke:black;" points="740.916,-407.042 733,-400 734.797,-410.441 740.916,-407.042"/>
</g>
<!-- C c2&#45;&gt;C c2 1.0 -->
<g id="edge8" class="edge"><title>C c2&#45;&gt;C c2 1.0</title>
<path style="fill:none;stroke:black;stroke-dasharray:1,5;" d="M810,-510C810,-484 810,-436 810,-400"/>
<polygon style="fill:black;stroke:black;" points="813.5,-400 810,-390 806.5,-400 813.5,-400"/>
</g>
<!-- C c3 -->
<g id="node23" class="node"><title>C c3</title>
<ellipse style="fill:none;stroke:black;" cx="550" cy="-530" rx="27" ry="19.799"/>
<text text-anchor="middle" x="550" y="-526" style="font-family:Nimbus Roman No9 L;font-weight:regular;font-size:11.34pt;">c3</text>
</g>
<!-- C c3&#45;&gt;C c3 2.1 -->
<g id="edge10" class="edge"><title>C c3&#45;&gt;C c3 2.1</title>
<path style="fill:none;stroke:black;stroke-dasharray:1,5;" d="M550,-510C550,-490 550,-459 550,-430"/>
<polygon style="fill:black;stroke:black;" points="553.5,-430 550,-420 546.5,-430 553.5,-430"/>
</g>
<!-- C cabar -->
<g id="node25" class="node"><title>C cabar</title>
<ellipse style="fill:none;stroke:black;" cx="1299" cy="-356" rx="28.799" ry="19.799"/>
<text text-anchor="middle" x="1299" y="-352" style="font-family:Nimbus Roman No9 L;font-weight:regular;font-size:11.34pt;">cabar</text>
</g>
<!-- C cabar&#45;&gt;C cabar 1.0 -->
<g id="edge12" class="edge"><title>C cabar&#45;&gt;C cabar 1.0</title>
<path style="fill:none;stroke:black;stroke-dasharray:1,5;" d="M1293,-336C1287,-322 1276,-302 1261,-292 1183,-238 1138,-285 1045,-253"/>
<polygon style="fill:black;stroke:black;" points="1046.59,-249.842 1036,-250 1044.38,-256.483 1046.59,-249.842"/>
</g>
<!-- C cnu_config -->
<g id="node27" class="node"><title>C cnu_config</title>
<ellipse style="fill:none;stroke:black;" cx="273" cy="-356" rx="44.8012" ry="19.799"/>
<text text-anchor="middle" x="273" y="-352" style="font-family:Nimbus Roman No9 L;font-weight:regular;font-size:11.34pt;">cnu_config</text>
</g>
<!-- C cnu_config&#45;&gt;C cnu_config 1.0 -->
<g id="edge14" class="edge"><title>C cnu_config&#45;&gt;C cnu_config 1.0</title>
<path style="fill:none;stroke:black;stroke-dasharray:1,5;" d="M288,-337C307,-311 344,-265 371,-232"/>
<polygon style="fill:black;stroke:black;" points="373.8,-234.1 377,-224 368.2,-229.9 373.8,-234.1"/>
</g>
<!-- C cnu_customer -->
<g id="node29" class="node"><title>C cnu_customer</title>
<ellipse style="fill:none;stroke:black;" cx="404" cy="-642" rx="52.799" ry="19.799"/>
<text text-anchor="middle" x="404" y="-638" style="font-family:Nimbus Roman No9 L;font-weight:regular;font-size:11.34pt;">cnu_customer</text>
</g>
<!-- C cnu_customer&#45;&gt;C cnu_customer 1.2 -->
<g id="edge16" class="edge"><title>C cnu_customer&#45;&gt;C cnu_customer 1.2</title>
<path style="fill:none;stroke:black;stroke-dasharray:1,5;" d="M404,-622C404,-614 404,-604 404,-594"/>
<polygon style="fill:black;stroke:black;" points="407.5,-594 404,-584 400.5,-594 407.5,-594"/>
</g>
<!-- C cnu_locale -->
<g id="node31" class="node"><title>C cnu_locale</title>
<ellipse style="fill:none;stroke:black;" cx="204" cy="-530" rx="43.799" ry="19.799"/>
<text text-anchor="middle" x="204" y="-526" style="font-family:Nimbus Roman No9 L;font-weight:regular;font-size:11.34pt;">cnu_locale</text>
</g>
<!-- C cnu_locale&#45;&gt;C cnu_locale 1.1 -->
<g id="edge18" class="edge"><title>C cnu_locale&#45;&gt;C cnu_locale 1.1</title>
<path style="fill:none;stroke:black;stroke-dasharray:1,5;" d="M225,-512C253,-488 305,-442 346,-407"/>
<polygon style="fill:black;stroke:black;" points="348.779,-409.219 354,-400 344.169,-403.951 348.779,-409.219"/>
</g>
<!-- C cnu_locale&#45;&gt;C cnu_locale 2.0 -->
<g id="edge20" class="edge"><title>C cnu_locale&#45;&gt;C cnu_locale 2.0</title>
<path style="fill:none;stroke:black;stroke-dasharray:1,5;" d="M197,-510C189,-485 174,-443 162,-410"/>
<polygon style="fill:black;stroke:black;" points="164.964,-407.985 158,-400 158.464,-410.585 164.964,-407.985"/>
</g>
<!-- C gems -->
<g id="node34" class="node"><title>C gems</title>
<ellipse style="fill:none;stroke:black;" cx="28" cy="-356" rx="27.8025" ry="19.799"/>
<text text-anchor="middle" x="28" y="-352" style="font-family:Nimbus Roman No9 L;font-weight:regular;font-size:11.34pt;">gems</text>
</g>
<!-- C gems&#45;&gt;C gems 1.0 -->
<g id="edge22" class="edge"><title>C gems&#45;&gt;C gems 1.0</title>
<path style="fill:none;stroke:black;stroke-dasharray:1,5;" d="M31,-336C36,-313 42,-275 47,-244"/>
<polygon style="fill:black;stroke:black;" points="50.4708,-244.492 49,-234 43.6067,-243.119 50.4708,-244.492"/>
</g>
<!-- C perl -->
<g id="node36" class="node"><title>C perl</title>
<ellipse style="fill:none;stroke:black;" cx="1305" cy="-642" rx="27" ry="19.799"/>
<text text-anchor="middle" x="1305" y="-638" style="font-family:Nimbus Roman No9 L;font-weight:regular;font-size:11.34pt;">perl</text>
</g>
<!-- C perl&#45;&gt;C perl 5.8.8 -->
<g id="edge24" class="edge"><title>C perl&#45;&gt;C perl 5.8.8</title>
<path style="fill:none;stroke:black;stroke-dasharray:1,5;" d="M1305,-622C1305,-612 1305,-598 1305,-584"/>
<polygon style="fill:black;stroke:black;" points="1308.5,-584 1305,-574 1301.5,-584 1308.5,-584"/>
</g>
<!-- C ruby -->
<g id="node38" class="node"><title>C ruby</title>
<ellipse style="fill:none;stroke:black;" cx="1081" cy="-190" rx="27" ry="19.799"/>
<text text-anchor="middle" x="1081" y="-186" style="font-family:Nimbus Roman No9 L;font-weight:regular;font-size:11.34pt;">ruby</text>
</g>
<!-- C ruby&#45;&gt;C ruby 1.8.4 -->
<g id="edge26" class="edge"><title>C ruby&#45;&gt;C ruby 1.8.4</title>
<path style="fill:none;stroke:black;stroke-dasharray:1,5;" d="M1073,-171C1066,-152 1054,-123 1043,-97"/>
<polygon style="fill:black;stroke:black;" points="1046.26,-95.7166 1039,-88 1039.86,-98.5596 1046.26,-95.7166"/>
</g>
<!-- C ruby&#45;&gt;C ruby 1.8.6.111 -->
<g id="edge28" class="edge"><title>C ruby&#45;&gt;C ruby 1.8.6.111</title>
<path style="fill:none;stroke:black;stroke-dasharray:1,5;" d="M1075,-170C1069,-156 1060,-137 1045,-126 1000,-93 866,-71 758,-58"/>
<polygon style="fill:black;stroke:black;" points="758.299,-54.5125 748,-57 757.602,-61.4778 758.299,-54.5125"/>
</g>
<!-- C ruby&#45;&gt;C ruby 1.9 -->
<g id="edge30" class="edge"><title>C ruby&#45;&gt;C ruby 1.9</title>
<path style="fill:none;stroke:black;stroke-dasharray:1,5;" d="M1089,-171C1096,-152 1108,-123 1119,-97"/>
<polygon style="fill:black;stroke:black;" points="1122.14,-98.5596 1123,-88 1115.74,-95.7166 1122.14,-98.5596"/>
</g>
<!-- C rubygems -->
<g id="node42" class="node"><title>C rubygems</title>
<ellipse style="fill:none;stroke:black;" cx="1112" cy="-530" rx="40.8014" ry="19.799"/>
<text text-anchor="middle" x="1112" y="-526" style="font-family:Nimbus Roman No9 L;font-weight:regular;font-size:11.34pt;">rubygems</text>
</g>
<!-- C rubygems&#45;&gt;C rubygems 0.9.4 -->
<g id="edge32" class="edge"><title>C rubygems&#45;&gt;C rubygems 0.9.4</title>
<path style="fill:none;stroke:black;stroke-dasharray:1,5;" d="M1112,-510C1112,-483 1112,-434 1112,-398"/>
<polygon style="fill:black;stroke:black;" points="1115.5,-398 1112,-388 1108.5,-398 1115.5,-398"/>
</g>
</g>
</svg>
