<?xml version="1.0" encoding="UTF-8" standalone="no"?>
<!DOCTYPE svg PUBLIC "-//W3C//DTD SVG 1.0//EN"
 "http://www.w3.org/TR/2001/REC-SVG-20010904/DTD/svg10.dtd" [
 <!ATTLIST svg xmlns:xlink CDATA #FIXED "http://www.w3.org/1999/xlink">
]>
<!-- Generated by Graphviz version 2.12 (Tue Sep  4 16:56:48 UTC 2007)
     For user: (stephens) Kurt Stephens,,, -->
<!-- Title: Cabar Pages: 1 -->
<svg width="5.09in" height="8.57in"
 xmlns="http://www.w3.org/2000/svg" xmlns:xlink="http://www.w3.org/1999/xlink">
<g id="graph0" class="graph" transform="scale(1.33333 1.33333) rotate(0) translate(4 614)">
<title>Cabar</title>
<polygon style="fill:white;stroke:white;" points="-4,4 -4,-614 363,-614 363,4 -4,4"/>
<!-- C c1 1.0 -->
<g id="node1" class="node"><title>C c1 1.0</title>
<a xlink:href="file:///home/stephens/local/src/cabar/example/dev/c1" xlink:title="c1 &#45; requires on c2/1.2">
<polygon style="fill:none;stroke:black;" points="158,-610 86,-610 86,-502 158,-502 158,-610"/>
<text text-anchor="middle" x="122" y="-592" style="font-family:Nimbus Roman No9 L;font-weight:regular;font-size:11.34pt;">c1 1.0</text>
<text text-anchor="middle" x="122" y="-572" style="font-family:Nimbus Roman No9 L;font-weight:regular;font-size:11.34pt;">./dev/c1</text>
<text text-anchor="start" x="94" y="-552" style="font-family:Nimbus Roman No9 L;font-weight:regular;font-size:11.34pt;">* action</text>
<text text-anchor="start" x="94" y="-532" style="font-family:Nimbus Roman No9 L;font-weight:regular;font-size:11.34pt;">* bin</text>
<text text-anchor="start" x="94" y="-512" style="font-family:Nimbus Roman No9 L;font-weight:regular;font-size:11.34pt;">* lib/ruby</text>
</a>
</g>
<!-- C c2 1.2 -->
<g id="node2" class="node"><title>C c2 1.2</title>
<a xlink:href="file:///home/stephens/local/src/cabar/example/dev/c2/1.2" xlink:title="c2/1.2">
<polygon style="fill:none;stroke:black;" points="82,-300 1.56507e-14,-300 1.60982e-15,-212 82,-212 82,-300"/>
<text text-anchor="middle" x="41" y="-282" style="font-family:Nimbus Roman No9 L;font-weight:regular;font-size:11.34pt;">c2 1.2</text>
<text text-anchor="middle" x="41" y="-262" style="font-family:Nimbus Roman No9 L;font-weight:regular;font-size:11.34pt;">./dev/c2/1.2</text>
<text text-anchor="start" x="8" y="-242" style="font-family:Nimbus Roman No9 L;font-weight:regular;font-size:11.34pt;">* bin</text>
<text text-anchor="start" x="8" y="-222" style="font-family:Nimbus Roman No9 L;font-weight:regular;font-size:11.34pt;">* lib/ruby</text>
</a>
</g>
<!-- C c1 1.0&#45;&gt;C c2 1.2 -->
<g id="edge2" class="edge"><title>C c1 1.0&#45;&gt;C c2 1.2</title>
<path style="fill:none;stroke:black;" d="M86,-509C73,-490 60,-468 53,-446 39,-402 37,-349 38,-310"/>
<polygon style="fill:black;stroke:black;" points="38,-300 42.5001,-310 38,-303 38.0001,-310 38,-303 33.5001,-310 38,-300 38,-300"/>
</g>
<!-- C c3 2.1 -->
<g id="node3" class="node"><title>C c3 2.1</title>
<a xlink:href="file:///home/stephens/local/src/cabar/example/prod/c3" xlink:title="c3/2.1">
<polygon style="fill:none;stroke:black;" points="182,-446 62,-446 62,-318 182,-318 182,-446"/>
<text text-anchor="middle" x="122" y="-428" style="font-family:Nimbus Roman No9 L;font-weight:regular;font-size:11.34pt;">c3 2.1</text>
<text text-anchor="middle" x="122" y="-408" style="font-family:Nimbus Roman No9 L;font-weight:regular;font-size:11.34pt;">./prod/c3</text>
<text text-anchor="start" x="70" y="-388" style="font-family:Nimbus Roman No9 L;font-weight:regular;font-size:11.34pt;">* bin</text>
<text text-anchor="start" x="70" y="-368" style="font-family:Nimbus Roman No9 L;font-weight:regular;font-size:11.34pt;">* cnu_config_path</text>
<text text-anchor="start" x="70" y="-348" style="font-family:Nimbus Roman No9 L;font-weight:regular;font-size:11.34pt;">* include</text>
<text text-anchor="start" x="70" y="-328" style="font-family:Nimbus Roman No9 L;font-weight:regular;font-size:11.34pt;">* lib</text>
</a>
</g>
<!-- C c1 1.0&#45;&gt;C c3 2.1 -->
<g id="edge4" class="edge"><title>C c1 1.0&#45;&gt;C c3 2.1</title>
<path style="fill:none;stroke:black;" d="M122,-502C122,-487 122,-472 122,-456"/>
<polygon style="fill:black;stroke:black;" points="122,-446 126.5,-456 122,-449 122,-456 122,-449 117.5,-456 122,-446 122,-446"/>
<a xlink:title="&gt;= 1.1">
</a>
<a xlink:title="&gt;= 1.1">
</a>
<text text-anchor="middle" x="141" y="-470" style="font-family:Nimbus Roman No9 L;font-weight:regular;font-size:11.34pt;">&gt;= 1.1</text>
</g>
<!-- C ruby 1.8.6.111 -->
<g id="node5" class="node"><title>C ruby 1.8.6.111</title>
<a xlink:href="file:///home/stephens/local/src/cabar/comp/ruby/std" xlink:title="Ruby &#45; /home/stephens/local/ruby/1.8.6&#45;p111/bin/ruby">
<polygon style="fill:none;stroke:black;" points="344,-88 72,-88 72,-2.84217e-14 344,-0 344,-88"/>
<text text-anchor="middle" x="208" y="-70" style="font-family:Nimbus Roman No9 L;font-weight:regular;font-size:11.34pt;">ruby 1.8.6.111</text>
<text text-anchor="middle" x="208" y="-50" style="font-family:Nimbus Roman No9 L;font-weight:regular;font-size:11.34pt;">/home/stephens/local/src/cabar/comp/ruby/std</text>
<text text-anchor="start" x="80" y="-30" style="font-family:Nimbus Roman No9 L;font-weight:regular;font-size:11.34pt;">* bin</text>
<text text-anchor="start" x="80" y="-10" style="font-family:Nimbus Roman No9 L;font-weight:regular;font-size:11.34pt;">* lib/ruby</text>
</a>
</g>
<!-- C c1 1.0&#45;&gt;C ruby 1.8.6.111 -->
<g id="edge6" class="edge"><title>C c1 1.0&#45;&gt;C ruby 1.8.6.111</title>
<path style="fill:none;stroke:black;" d="M158,-549C207,-537 293,-508 331,-446 359,-399 308,-130 306,-126 301,-115 293,-105 285,-95"/>
<polygon style="fill:black;stroke:black;" points="278,-88 288.253,-91.8891 280.121,-90.1213 285.071,-95.0711 280.121,-90.1213 281.889,-98.2531 278,-88 278,-88"/>
</g>
<!-- C c2 1.2&#45;&gt;C ruby 1.8.6.111 -->
<g id="edge8" class="edge"><title>C c2 1.2&#45;&gt;C ruby 1.8.6.111</title>
<path style="fill:none;stroke:black;" d="M49,-212C57,-179 71,-136 97,-106 100,-102 104,-98 108,-94"/>
<polygon style="fill:black;stroke:black;" points="116,-88 110.7,-97.6 113.6,-89.8 108,-94 113.6,-89.8 105.3,-90.4 116,-88 116,-88"/>
</g>
<!-- C cnu_config 1.0 -->
<g id="node4" class="node"><title>C cnu_config 1.0</title>
<a xlink:href="file:///home/stephens/local/src/cabar/example/prod/cnu_config/1.0" xlink:title="cnu_config/1.0">
<polygon style="fill:none;stroke:black;" points="277,-194 139,-194 139,-126 277,-126 277,-194"/>
<text text-anchor="middle" x="208" y="-176" style="font-family:Nimbus Roman No9 L;font-weight:regular;font-size:11.34pt;">cnu_config 1.0</text>
<text text-anchor="middle" x="208" y="-156" style="font-family:Nimbus Roman No9 L;font-weight:regular;font-size:11.34pt;">./prod/cnu_config/1.0</text>
<text text-anchor="start" x="147" y="-136" style="font-family:Nimbus Roman No9 L;font-weight:regular;font-size:11.34pt;">* lib/ruby</text>
</a>
</g>
<!-- C c3 2.1&#45;&gt;C cnu_config 1.0 -->
<g id="edge10" class="edge"><title>C c3 2.1&#45;&gt;C cnu_config 1.0</title>
<path style="fill:none;stroke:black;" d="M147,-318C161,-281 178,-236 191,-204"/>
<polygon style="fill:black;stroke:black;" points="195,-194 195.464,-204.956 193.886,-196.785 191.286,-203.285 193.886,-196.785 187.108,-201.613 195,-194 195,-194"/>
</g>
<!-- C c3 2.1&#45;&gt;C ruby 1.8.6.111 -->
<g id="edge12" class="edge"><title>C c3 2.1&#45;&gt;C ruby 1.8.6.111</title>
<path style="fill:none;stroke:black;" d="M112,-318C106,-264 105,-187 130,-126 135,-115 141,-105 148,-96"/>
<polygon style="fill:black;stroke:black;" points="155,-88 151.802,-98.4891 153.024,-90.2577 148.415,-95.5258 153.024,-90.2577 145.028,-92.5625 155,-88 155,-88"/>
</g>
<!-- C cnu_config 1.0&#45;&gt;C ruby 1.8.6.111 -->
<g id="edge14" class="edge"><title>C cnu_config 1.0&#45;&gt;C ruby 1.8.6.111</title>
<path style="fill:none;stroke:black;" d="M208,-126C208,-117 208,-108 208,-98"/>
<polygon style="fill:black;stroke:black;" points="208,-88 212.5,-98 208,-91 208,-98 208,-91 203.5,-98 208,-88 208,-88"/>
</g>
<!-- C cnu_locale 1.1 -->
<g id="node13" class="node"><title>C cnu_locale 1.1</title>
<ellipse style="fill:none;stroke:black;" cx="261" cy="-382" rx="60.8006" ry="19.799"/>
<text text-anchor="middle" x="261" y="-378" style="font-family:Nimbus Roman No9 L;font-weight:regular;font-size:11.34pt;">C cnu_locale 1.1</text>
</g>
<!-- C cnu_locale 1.1&#45;&gt;C cnu_config 1.0 -->
<g id="edge16" class="edge"><title>C cnu_locale 1.1&#45;&gt;C cnu_config 1.0</title>
<path style="fill:none;stroke:black;" d="M256,-362C248,-327 230,-252 218,-204"/>
<polygon style="fill:black;stroke:black;" points="216,-194 222.374,-202.923 216.588,-196.942 217.961,-203.806 216.588,-196.942 213.549,-204.688 216,-194 216,-194"/>
</g>
<!-- C cnu_locale 1.1&#45;&gt;C ruby 1.8.6.111 -->
<g id="edge18" class="edge"><title>C cnu_locale 1.1&#45;&gt;C ruby 1.8.6.111</title>
<path style="fill:none;stroke:black;" d="M269,-362C285,-318 319,-209 286,-126 281,-115 275,-105 268,-96"/>
<polygon style="fill:black;stroke:black;" points="261,-88 270.972,-92.5625 262.976,-90.2577 267.585,-95.5258 262.976,-90.2577 264.198,-98.4891 261,-88 261,-88"/>
</g>
</g>
</svg>
