<?xml version="1.0" encoding="UTF-8" standalone="no"?>
<!DOCTYPE svg PUBLIC "-//W3C//DTD SVG 1.0//EN"
 "http://www.w3.org/TR/2001/REC-SVG-20010904/DTD/svg10.dtd" [
 <!ATTLIST svg xmlns:xlink CDATA #FIXED "http://www.w3.org/1999/xlink">
]>
<!-- Generated by Graphviz version 2.12 (Tue Sep  4 16:56:48 UTC 2007)
     For user: (stephens) Kurt Stephens,,, -->
<!-- Title: Cabar Pages: 1 -->
<svg width="15.02in" height="13.27in"
 xmlns="http://www.w3.org/2000/svg" xmlns:xlink="http://www.w3.org/1999/xlink">
<g id="graph0" class="graph" transform="scale(1.33333 1.33333) rotate(0) translate(4 952)">
<title>Cabar</title>
<polygon style="fill:white;stroke:white;" points="-4,4 -4,-952 1078,-952 1078,4 -4,4"/>
<!-- C c1 1.0 -->
<g id="node1" class="node"><title>C c1 1.0</title>
<a xlink:href="file:///home/stephens/local/src/cabar/example/dev/c1" xlink:title="c1 &#45; requires on c2/1.2">
<polygon style="fill:none;stroke:black;" points="713,-874 641,-874 641,-766 713,-766 713,-874"/>
<text text-anchor="middle" x="677" y="-856" style="font-family:Nimbus Roman No9 L;font-weight:regular;font-size:11.34pt;">c1 1.0</text>
<text text-anchor="middle" x="677" y="-836" style="font-family:Nimbus Roman No9 L;font-weight:regular;font-size:11.34pt;">./dev/c1</text>
<text text-anchor="start" x="649" y="-816" style="font-family:Nimbus Roman No9 L;font-weight:regular;font-size:11.34pt;">* action</text>
<text text-anchor="start" x="649" y="-796" style="font-family:Nimbus Roman No9 L;font-weight:regular;font-size:11.34pt;">* bin</text>
<text text-anchor="start" x="649" y="-776" style="font-family:Nimbus Roman No9 L;font-weight:regular;font-size:11.34pt;">* lib/ruby</text>
</a>
</g>
<!-- C c2 1.2 -->
<g id="node3" class="node"><title>C c2 1.2</title>
<a xlink:href="file:///home/stephens/local/src/cabar/example/dev/c2/1.2" xlink:title="c2/1.2">
<polygon style="fill:none;stroke:black;" points="714,-508 632,-508 632,-420 714,-420 714,-508"/>
<text text-anchor="middle" x="673" y="-490" style="font-family:Nimbus Roman No9 L;font-weight:regular;font-size:11.34pt;">c2 1.2</text>
<text text-anchor="middle" x="673" y="-470" style="font-family:Nimbus Roman No9 L;font-weight:regular;font-size:11.34pt;">./dev/c2/1.2</text>
<text text-anchor="start" x="640" y="-450" style="font-family:Nimbus Roman No9 L;font-weight:regular;font-size:11.34pt;">* bin</text>
<text text-anchor="start" x="640" y="-430" style="font-family:Nimbus Roman No9 L;font-weight:regular;font-size:11.34pt;">* lib/ruby</text>
</a>
</g>
<!-- C c1 1.0&#45;&gt;C c2 1.2 -->
<g id="edge45" class="edge"><title>C c1 1.0&#45;&gt;C c2 1.2</title>
<path style="fill:none;stroke:black;" d="M676,-766C675,-699 674,-585 673,-518"/>
<polygon style="fill:black;stroke:black;" points="673,-508 677.5,-518 673,-511 673,-518 673,-511 668.5,-518 673,-508 673,-508"/>
</g>
<!-- C c3 2.1 -->
<g id="node5" class="node"><title>C c3 2.1</title>
<a xlink:href="file:///home/stephens/local/src/cabar/example/prod/c3" xlink:title="c3/2.1">
<polygon style="fill:none;stroke:black;" points="428,-654 308,-654 308,-526 428,-526 428,-654"/>
<text text-anchor="middle" x="368" y="-636" style="font-family:Nimbus Roman No9 L;font-weight:regular;font-size:11.34pt;">c3 2.1</text>
<text text-anchor="middle" x="368" y="-616" style="font-family:Nimbus Roman No9 L;font-weight:regular;font-size:11.34pt;">./prod/c3</text>
<text text-anchor="start" x="316" y="-596" style="font-family:Nimbus Roman No9 L;font-weight:regular;font-size:11.34pt;">* bin</text>
<text text-anchor="start" x="316" y="-576" style="font-family:Nimbus Roman No9 L;font-weight:regular;font-size:11.34pt;">* cnu_config_path</text>
<text text-anchor="start" x="316" y="-556" style="font-family:Nimbus Roman No9 L;font-weight:regular;font-size:11.34pt;">* include</text>
<text text-anchor="start" x="316" y="-536" style="font-family:Nimbus Roman No9 L;font-weight:regular;font-size:11.34pt;">* lib</text>
</a>
</g>
<!-- C c1 1.0&#45;&gt;C c3 2.1 -->
<g id="edge49" class="edge"><title>C c1 1.0&#45;&gt;C c3 2.1</title>
<path style="fill:none;stroke:black;" d="M641,-813C592,-801 507,-776 450,-728 430,-710 413,-686 400,-663"/>
<polygon style="fill:black;stroke:black;" points="395,-654 403.79,-660.556 396.457,-656.622 399.856,-662.742 396.457,-656.622 395.923,-664.927 395,-654 395,-654"/>
<a xlink:title="&gt;= 1.1">
</a>
<a xlink:title="&gt;= 1.1">
</a>
<text text-anchor="middle" x="472" y="-706" style="font-family:Nimbus Roman No9 L;font-weight:regular;font-size:11.34pt;">&gt;= 1.1</text>
</g>
<!-- C ruby 1.8.6.111 -->
<g id="node14" class="node"><title>C ruby 1.8.6.111</title>
<a xlink:href="file:///home/stephens/local/src/cabar/comp/ruby/std" xlink:title="Ruby &#45; /home/stephens/local/ruby/1.8.6&#45;p111/bin/ruby">
<polygon style="fill:none;stroke:black;" points="810,-88 538,-88 538,-2.84217e-14 810,-0 810,-88"/>
<text text-anchor="middle" x="674" y="-70" style="font-family:Nimbus Roman No9 L;font-weight:regular;font-size:11.34pt;">ruby 1.8.6.111</text>
<text text-anchor="middle" x="674" y="-50" style="font-family:Nimbus Roman No9 L;font-weight:regular;font-size:11.34pt;">/home/stephens/local/src/cabar/comp/ruby/std</text>
<text text-anchor="start" x="546" y="-30" style="font-family:Nimbus Roman No9 L;font-weight:regular;font-size:11.34pt;">* bin</text>
<text text-anchor="start" x="546" y="-10" style="font-family:Nimbus Roman No9 L;font-weight:regular;font-size:11.34pt;">* lib/ruby</text>
</a>
</g>
<!-- C c1 1.0&#45;&gt;C ruby 1.8.6.111 -->
<g id="edge53" class="edge"><title>C c1 1.0&#45;&gt;C ruby 1.8.6.111</title>
<path style="fill:none;stroke:black;" d="M713,-772C716,-770 719,-768 722,-766 791,-726 1074,-789 1074,-710 1074,-710 1074,-710 1074,-144 1074,-90 935,-64 820,-53"/>
<polygon style="fill:black;stroke:black;" points="810,-52 820.398,-48.5175 812.985,-52.2985 819.95,-52.9951 812.985,-52.2985 819.503,-57.4728 810,-52 810,-52"/>
</g>
<!-- C c2 -->
<g id="node21" class="node"><title>C c2</title>
<text text-anchor="middle" x="613" y="-706" style="font-family:Nimbus Roman No9 L;font-weight:regular;font-size:11.34pt;">c2</text>
</g>
<!-- C c1 1.0&#45;&gt;C c2 -->
<g id="edge47" class="edge"><title>C c1 1.0&#45;&gt;C c2</title>
<path style="fill:none;stroke:black;stroke-dasharray:1,5;" d="M646,-766C640,-756 634,-746 629,-737"/>
<polygon style="fill:black;stroke:black;" points="624,-728 632.79,-734.556 625.457,-730.622 628.856,-736.742 625.457,-730.622 624.923,-738.927 624,-728 624,-728"/>
</g>
<!-- C c3 -->
<g id="node26" class="node"><title>C c3</title>
<text text-anchor="middle" x="524" y="-706" style="font-family:Nimbus Roman No9 L;font-weight:regular;font-size:11.34pt;">c3</text>
</g>
<!-- C c1 1.0&#45;&gt;C c3 -->
<g id="edge51" class="edge"><title>C c1 1.0&#45;&gt;C c3</title>
<path style="fill:none;stroke:black;stroke-dasharray:1,5;" d="M641,-794C615,-776 582,-752 557,-734"/>
<polygon style="fill:black;stroke:black;" points="549,-728 559.7,-730.4 551.4,-729.8 557,-734 551.4,-729.8 554.3,-737.6 549,-728 549,-728"/>
</g>
<!-- C ruby -->
<g id="node48" class="node"><title>C ruby</title>
<text text-anchor="middle" x="523" y="-140" style="font-family:Nimbus Roman No9 L;font-weight:regular;font-size:11.34pt;">ruby</text>
</g>
<!-- C c1 1.0&#45;&gt;C ruby -->
<g id="edge55" class="edge"><title>C c1 1.0&#45;&gt;C ruby</title>
<path style="fill:none;stroke:black;stroke-dasharray:1,5;" d="M693,-766C713,-688 742,-541 715,-420 692,-314 684,-280 612,-200 598,-183 577,-170 559,-160"/>
<polygon style="fill:black;stroke:black;" points="550,-156 560.966,-155.949 552.741,-157.218 559.138,-160.061 552.741,-157.218 557.31,-164.174 550,-156 550,-156"/>
</g>
<!-- C c2 1.1 -->
<g id="node2" class="node"><title>C c2 1.1</title>
<a xlink:href="file:///home/stephens/local/src/cabar/example/dev/c2/1.1" xlink:title="c2/1.1">
<polygon style="fill:none;stroke:black;stroke-dasharray:1,5;" points="634,-634 552,-634 552,-546 634,-546 634,-634"/>
<text text-anchor="middle" x="593" y="-616" style="font-family:Nimbus Roman No9 L;font-weight:regular;font-size:11.34pt;">c2 1.1</text>
<text text-anchor="middle" x="593" y="-596" style="font-family:Nimbus Roman No9 L;font-weight:regular;font-size:11.34pt;">./dev/c2/1.1</text>
<text text-anchor="start" x="560" y="-576" style="font-family:Nimbus Roman No9 L;font-weight:regular;font-size:11.34pt;">* bin</text>
<text text-anchor="start" x="560" y="-556" style="font-family:Nimbus Roman No9 L;font-weight:regular;font-size:11.34pt;">* lib/ruby</text>
</a>
</g>
<!-- C c2 1.2&#45;&gt;C ruby 1.8.6.111 -->
<g id="edge57" class="edge"><title>C c2 1.2&#45;&gt;C ruby 1.8.6.111</title>
<path style="fill:none;stroke:black;" d="M674,-420C674,-398 674,-371 674,-347 674,-347 674,-347 674,-144 674,-130 674,-113 674,-98"/>
<polygon style="fill:black;stroke:black;" points="674,-88 678.5,-98 674,-91 674,-98 674,-91 669.5,-98 674,-88 674,-88"/>
</g>
<!-- C c2 1.2&#45;&gt;C ruby -->
<g id="edge59" class="edge"><title>C c2 1.2&#45;&gt;C ruby</title>
<path style="fill:none;stroke:black;stroke-dasharray:1,5;" d="M656,-420C626,-341 566,-184 562,-180 560,-176 557,-172 553,-169"/>
<polygon style="fill:black;stroke:black;" points="546,-162 556.253,-165.889 548.121,-164.121 553.071,-169.071 548.121,-164.121 549.889,-172.253 546,-162 546,-162"/>
</g>
<!-- C c2 1.0 -->
<g id="node4" class="node"><title>C c2 1.0</title>
<a xlink:href="file:///home/stephens/local/src/cabar/example/prod/c2/1.0" xlink:title="c2/1.0">
<polygon style="fill:none;stroke:black;stroke-dasharray:1,5;" points="534,-624 446,-624 446,-556 534,-556 534,-624"/>
<text text-anchor="middle" x="490" y="-606" style="font-family:Nimbus Roman No9 L;font-weight:regular;font-size:11.34pt;">c2 1.0</text>
<text text-anchor="middle" x="490" y="-586" style="font-family:Nimbus Roman No9 L;font-weight:regular;font-size:11.34pt;">./prod/c2/1.0</text>
<text text-anchor="start" x="454" y="-566" style="font-family:Nimbus Roman No9 L;font-weight:regular;font-size:11.34pt;">* lib/ruby</text>
</a>
</g>
<!-- C cnu_config 1.0 -->
<g id="node7" class="node"><title>C cnu_config 1.0</title>
<a xlink:href="file:///home/stephens/local/src/cabar/example/prod/cnu_config/1.0" xlink:title="cnu_config/1.0">
<polygon style="fill:none;stroke:black;" points="299,-298 161,-298 161,-230 299,-230 299,-298"/>
<text text-anchor="middle" x="230" y="-280" style="font-family:Nimbus Roman No9 L;font-weight:regular;font-size:11.34pt;">cnu_config 1.0</text>
<text text-anchor="middle" x="230" y="-260" style="font-family:Nimbus Roman No9 L;font-weight:regular;font-size:11.34pt;">./prod/cnu_config/1.0</text>
<text text-anchor="start" x="169" y="-240" style="font-family:Nimbus Roman No9 L;font-weight:regular;font-size:11.34pt;">* lib/ruby</text>
</a>
</g>
<!-- C c3 2.1&#45;&gt;C cnu_config 1.0 -->
<g id="edge61" class="edge"><title>C c3 2.1&#45;&gt;C cnu_config 1.0</title>
<path style="fill:none;stroke:black;" d="M345,-526C326,-476 299,-406 272,-346 266,-333 260,-320 254,-307"/>
<polygon style="fill:black;stroke:black;" points="249,-298 257.79,-304.556 250.457,-300.622 253.856,-306.742 250.457,-300.622 249.923,-308.927 249,-298 249,-298"/>
</g>
<!-- C c3 2.1&#45;&gt;C ruby 1.8.6.111 -->
<g id="edge65" class="edge"><title>C c3 2.1&#45;&gt;C ruby 1.8.6.111</title>
<path style="fill:none;stroke:black;" d="M428,-532C431,-530 434,-528 437,-526 457,-513 468,-522 486,-508 564,-448 573,-417 612,-328 630,-287 653,-169 665,-98"/>
<polygon style="fill:black;stroke:black;" points="667,-88 669.451,-98.6884 666.412,-90.9417 665.039,-97.8058 666.412,-90.9417 660.626,-96.9233 667,-88 667,-88"/>
</g>
<!-- C cnu_config -->
<g id="node32" class="node"><title>C cnu_config</title>
<text text-anchor="middle" x="211" y="-380" style="font-family:Nimbus Roman No9 L;font-weight:regular;font-size:11.34pt;">cnu_config</text>
</g>
<!-- C c3 2.1&#45;&gt;C cnu_config -->
<g id="edge63" class="edge"><title>C c3 2.1&#45;&gt;C cnu_config</title>
<path style="fill:none;stroke:black;stroke-dasharray:1,5;" d="M319,-526C289,-487 253,-439 231,-410"/>
<polygon style="fill:black;stroke:black;" points="225,-402 234.6,-407.3 226.8,-404.4 231,-410 226.8,-404.4 227.4,-412.7 225,-402 225,-402"/>
</g>
<!-- C c3 2.1&#45;&gt;C ruby -->
<g id="edge67" class="edge"><title>C c3 2.1&#45;&gt;C ruby</title>
<path style="fill:none;stroke:black;stroke-dasharray:1,5;" d="M428,-526C469,-476 518,-403 529,-328 538,-274 532,-209 527,-172"/>
<polygon style="fill:black;stroke:black;" points="526,-162 531.473,-171.503 526.299,-164.985 526.995,-171.95 526.299,-164.985 522.517,-172.398 526,-162 526,-162"/>
</g>
<!-- C cabar 1.0 -->
<g id="node6" class="node"><title>C cabar 1.0</title>
<a xlink:href="file:///home/stephens/local/src/cabar" xlink:title="Cabar &#45; Component Backplane Manager">
<polygon style="fill:none;stroke:black;stroke-dasharray:1,5;" points="964,-328 778,-328 778,-200 964,-200 964,-328"/>
<text text-anchor="middle" x="871" y="-310" style="font-family:Nimbus Roman No9 L;font-weight:regular;font-size:11.34pt;">cabar 1.0</text>
<text text-anchor="middle" x="871" y="-290" style="font-family:Nimbus Roman No9 L;font-weight:regular;font-size:11.34pt;">/home/stephens/local/src/cabar</text>
<text text-anchor="start" x="786" y="-270" style="font-family:Nimbus Roman No9 L;font-weight:regular;font-size:11.34pt;">* action</text>
<text text-anchor="start" x="786" y="-250" style="font-family:Nimbus Roman No9 L;font-weight:regular;font-size:11.34pt;">* bin</text>
<text text-anchor="start" x="786" y="-230" style="font-family:Nimbus Roman No9 L;font-weight:regular;font-size:11.34pt;">* components</text>
<text text-anchor="start" x="786" y="-210" style="font-family:Nimbus Roman No9 L;font-weight:regular;font-size:11.34pt;">* lib/ruby</text>
</a>
</g>
<!-- C cabar 1.0&#45;&gt;C ruby 1.8.6.111 -->
<g id="edge69" class="edge"><title>C cabar 1.0&#45;&gt;C ruby 1.8.6.111</title>
<path style="fill:none;stroke:black;" d="M813,-200C783,-167 748,-127 720,-96"/>
<polygon style="fill:black;stroke:black;" points="713,-88 722.972,-92.5625 714.976,-90.2577 719.585,-95.5258 714.976,-90.2577 716.198,-98.4891 713,-88 713,-88"/>
</g>
<!-- C cabar 1.0&#45;&gt;C ruby -->
<g id="edge71" class="edge"><title>C cabar 1.0&#45;&gt;C ruby</title>
<path style="fill:none;stroke:black;stroke-dasharray:1,5;" d="M800,-200C789,-192 776,-185 764,-180 728,-164 619,-152 560,-147"/>
<polygon style="fill:black;stroke:black;" points="550,-146 560.398,-142.517 552.985,-146.299 559.95,-146.995 552.985,-146.299 559.503,-151.473 550,-146 550,-146"/>
</g>
<!-- C cnu_config 1.0&#45;&gt;C ruby 1.8.6.111 -->
<g id="edge73" class="edge"><title>C cnu_config 1.0&#45;&gt;C ruby 1.8.6.111</title>
<path style="fill:none;stroke:black;" d="M238,-230C248,-192 270,-134 313,-106 352,-81 468,-95 528,-88"/>
<polygon style="fill:black;stroke:black;" points="538,-86 529.077,-92.3739 535.058,-86.5884 528.194,-87.9612 535.058,-86.5884 527.312,-83.5486 538,-86 538,-86"/>
</g>
<!-- C cnu_config 1.0&#45;&gt;C ruby -->
<g id="edge75" class="edge"><title>C cnu_config 1.0&#45;&gt;C ruby</title>
<path style="fill:none;stroke:black;stroke-dasharray:1,5;" d="M299,-231C334,-215 377,-195 416,-180 439,-171 465,-162 486,-155"/>
<polygon style="fill:black;stroke:black;" points="496,-152 487.715,-159.184 493.127,-152.862 486.422,-154.874 493.127,-152.862 485.129,-150.563 496,-152 496,-152"/>
</g>
<!-- C cnu_customer 1.2 -->
<g id="node8" class="node"><title>C cnu_customer 1.2</title>
<a xlink:href="file:///home/stephens/local/src/cabar/example/prod/cnu_customer/1.2" xlink:title="cnu_customer/1.2">
<polygon style="fill:none;stroke:black;stroke-dasharray:1,5;" points="262,-874 108,-874 108,-766 262,-766 262,-874"/>
<text text-anchor="middle" x="185" y="-856" style="font-family:Nimbus Roman No9 L;font-weight:regular;font-size:11.34pt;">cnu_customer 1.2</text>
<text text-anchor="middle" x="185" y="-836" style="font-family:Nimbus Roman No9 L;font-weight:regular;font-size:11.34pt;">./prod/cnu_customer/1.2</text>
<text text-anchor="start" x="116" y="-816" style="font-family:Nimbus Roman No9 L;font-weight:regular;font-size:11.34pt;">* cnu_config_path</text>
<text text-anchor="start" x="116" y="-796" style="font-family:Nimbus Roman No9 L;font-weight:regular;font-size:11.34pt;">* cnu_locale_path</text>
<text text-anchor="start" x="116" y="-776" style="font-family:Nimbus Roman No9 L;font-weight:regular;font-size:11.34pt;">* lib/ruby</text>
</a>
</g>
<!-- C cnu_locale 1.1 -->
<g id="node9" class="node"><title>C cnu_locale 1.1</title>
<a xlink:href="file:///home/stephens/local/src/cabar/example/prod/cnu_locale/1.1" xlink:title="cnu_locale/1.1">
<polygon style="fill:none;stroke:black;stroke-dasharray:1,5;" points="290,-634 154,-634 154,-546 290,-546 290,-634"/>
<text text-anchor="middle" x="222" y="-616" style="font-family:Nimbus Roman No9 L;font-weight:regular;font-size:11.34pt;">cnu_locale 1.1</text>
<text text-anchor="middle" x="222" y="-596" style="font-family:Nimbus Roman No9 L;font-weight:regular;font-size:11.34pt;">./prod/cnu_locale/1.1</text>
<text text-anchor="start" x="162" y="-576" style="font-family:Nimbus Roman No9 L;font-weight:regular;font-size:11.34pt;">* cnu_config_path</text>
<text text-anchor="start" x="162" y="-556" style="font-family:Nimbus Roman No9 L;font-weight:regular;font-size:11.34pt;">* lib/ruby</text>
</a>
</g>
<!-- C cnu_customer 1.2&#45;&gt;C cnu_locale 1.1 -->
<g id="edge77" class="edge"><title>C cnu_customer 1.2&#45;&gt;C cnu_locale 1.1</title>
<path style="fill:none;stroke:black;" d="M194,-766C199,-729 207,-681 213,-644"/>
<polygon style="fill:black;stroke:black;" points="215,-634 217.451,-644.688 214.412,-636.942 213.039,-643.806 214.412,-636.942 208.626,-642.923 215,-634 215,-634"/>
<a xlink:title="= 1.1">
</a>
<a xlink:title="= 1.1">
</a>
<text text-anchor="middle" x="222" y="-706" style="font-family:Nimbus Roman No9 L;font-weight:regular;font-size:11.34pt;">= 1.1</text>
</g>
<!-- C cnu_locale -->
<g id="node38" class="node"><title>C cnu_locale</title>
<text text-anchor="middle" x="148" y="-706" style="font-family:Nimbus Roman No9 L;font-weight:regular;font-size:11.34pt;">cnu_locale</text>
</g>
<!-- C cnu_customer 1.2&#45;&gt;C cnu_locale -->
<g id="edge79" class="edge"><title>C cnu_customer 1.2&#45;&gt;C cnu_locale</title>
<path style="fill:none;stroke:black;stroke-dasharray:1,5;" d="M167,-766C163,-756 160,-746 157,-737"/>
<polygon style="fill:black;stroke:black;" points="154,-728 161.431,-736.064 154.949,-730.846 157.162,-737.487 154.949,-730.846 152.893,-738.91 154,-728 154,-728"/>
</g>
<!-- C cnu_locale 1.1&#45;&gt;C cnu_config 1.0 -->
<g id="edge81" class="edge"><title>C cnu_locale 1.1&#45;&gt;C cnu_config 1.0</title>
<path style="fill:none;stroke:black;" d="M237,-546C251,-500 268,-428 259,-366 256,-347 251,-326 246,-308"/>
<polygon style="fill:black;stroke:black;" points="243,-298 250.184,-306.285 243.862,-300.873 245.874,-307.578 243.862,-300.873 241.563,-308.871 243,-298 243,-298"/>
</g>
<!-- C cnu_locale 1.1&#45;&gt;C ruby 1.8.6.111 -->
<g id="edge85" class="edge"><title>C cnu_locale 1.1&#45;&gt;C ruby 1.8.6.111</title>
<path style="fill:none;stroke:black;" d="M250,-546C257,-534 264,-520 269,-508 327,-376 282,-316 365,-200 408,-140 434,-137 500,-106 510,-101 521,-97 531,-92"/>
<polygon style="fill:black;stroke:black;" points="541,-88 533.387,-95.8921 538.215,-89.1142 531.715,-91.714 538.215,-89.1142 530.044,-87.5358 541,-88 541,-88"/>
</g>
<!-- C cnu_locale 1.1&#45;&gt;C cnu_config -->
<g id="edge83" class="edge"><title>C cnu_locale 1.1&#45;&gt;C cnu_config</title>
<path style="fill:none;stroke:black;stroke-dasharray:1,5;" d="M220,-546C217,-505 215,-447 213,-412"/>
<polygon style="fill:black;stroke:black;" points="212,-402 217.473,-411.503 212.299,-404.985 212.995,-411.95 212.299,-404.985 208.517,-412.398 212,-402 212,-402"/>
</g>
<!-- C cnu_locale 1.1&#45;&gt;C ruby -->
<g id="edge87" class="edge"><title>C cnu_locale 1.1&#45;&gt;C ruby</title>
<path style="fill:none;stroke:black;stroke-dasharray:1,5;" d="M273,-546C282,-539 290,-532 299,-526 312,-517 319,-520 328,-508 413,-394 322,-309 411,-200 430,-176 461,-162 486,-154"/>
<polygon style="fill:black;stroke:black;" points="496,-151 487.715,-158.184 493.127,-151.862 486.422,-153.874 493.127,-151.862 485.129,-149.563 496,-151 496,-151"/>
</g>
<!-- C cnu_locale 2.0 -->
<g id="node10" class="node"><title>C cnu_locale 2.0</title>
<a xlink:href="file:///home/stephens/local/src/cabar/example/prod/cnu_locale/2.0" xlink:title="cnu_locale/2.0">
<polygon style="fill:none;stroke:black;stroke-dasharray:1,5;" points="136,-634 2.84217e-14,-634 0,-546 136,-546 136,-634"/>
<text text-anchor="middle" x="68" y="-616" style="font-family:Nimbus Roman No9 L;font-weight:regular;font-size:11.34pt;">cnu_locale 2.0</text>
<text text-anchor="middle" x="68" y="-596" style="font-family:Nimbus Roman No9 L;font-weight:regular;font-size:11.34pt;">./prod/cnu_locale/2.0</text>
<text text-anchor="start" x="8" y="-576" style="font-family:Nimbus Roman No9 L;font-weight:regular;font-size:11.34pt;">* cnu_config_path</text>
<text text-anchor="start" x="8" y="-556" style="font-family:Nimbus Roman No9 L;font-weight:regular;font-size:11.34pt;">* lib/ruby</text>
</a>
</g>
<!-- C cnu_locale 2.0&#45;&gt;C cnu_config 1.0 -->
<g id="edge89" class="edge"><title>C cnu_locale 2.0&#45;&gt;C cnu_config 1.0</title>
<path style="fill:none;stroke:black;" d="M100,-546C107,-534 114,-521 120,-508 148,-448 136,-425 163,-366 172,-345 186,-324 198,-306"/>
<polygon style="fill:black;stroke:black;" points="204,-298 201.6,-308.7 202.2,-300.4 198,-306 202.2,-300.4 194.4,-303.3 204,-298 204,-298"/>
</g>
<!-- C cnu_locale 2.0&#45;&gt;C ruby 1.8.6.111 -->
<g id="edge93" class="edge"><title>C cnu_locale 2.0&#45;&gt;C ruby 1.8.6.111</title>
<path style="fill:none;stroke:black;" d="M68,-546C68,-504 68,-439 68,-384 68,-384 68,-384 68,-144 68,-94 443,-97 528,-87"/>
<polygon style="fill:black;stroke:black;" points="538,-86 528.497,-91.4728 535.015,-86.2985 528.05,-86.9951 535.015,-86.2985 527.602,-82.5175 538,-86 538,-86"/>
</g>
<!-- C cnu_locale 2.0&#45;&gt;C cnu_config -->
<g id="edge91" class="edge"><title>C cnu_locale 2.0&#45;&gt;C cnu_config</title>
<path style="fill:none;stroke:black;stroke-dasharray:1,5;" d="M124,-546C137,-534 149,-521 158,-508 179,-478 194,-438 203,-412"/>
<polygon style="fill:black;stroke:black;" points="206,-402 207.437,-412.871 205.138,-404.873 203.126,-411.578 205.138,-404.873 198.816,-410.285 206,-402 206,-402"/>
</g>
<!-- C cnu_locale 2.0&#45;&gt;C ruby -->
<g id="edge95" class="edge"><title>C cnu_locale 2.0&#45;&gt;C ruby</title>
<path style="fill:none;stroke:black;stroke-dasharray:1,5;" d="M76,-546C95,-446 139,-212 152,-200 177,-177 397,-155 486,-147"/>
<polygon style="fill:black;stroke:black;" points="496,-146 486.497,-151.473 493.015,-146.299 486.05,-146.995 493.015,-146.299 485.602,-142.517 496,-146 496,-146"/>
</g>
<!-- C gems 1.0 -->
<g id="node11" class="node"><title>C gems 1.0</title>
<a xlink:href="file:///home/stephens/local/src/cabar/example/plat/gems/1.0" xlink:title="gems/1.0">
<polygon style="fill:none;stroke:black;stroke-dasharray:1,5;" points="520,-308 420,-308 420,-220 520,-220 520,-308"/>
<text text-anchor="middle" x="470" y="-290" style="font-family:Nimbus Roman No9 L;font-weight:regular;font-size:11.34pt;">gems 1.0</text>
<text text-anchor="middle" x="470" y="-270" style="font-family:Nimbus Roman No9 L;font-weight:regular;font-size:11.34pt;">./plat/gems/1.0</text>
<text text-anchor="start" x="428" y="-250" style="font-family:Nimbus Roman No9 L;font-weight:regular;font-size:11.34pt;">* gems</text>
<text text-anchor="start" x="428" y="-230" style="font-family:Nimbus Roman No9 L;font-weight:regular;font-size:11.34pt;">* lib/ruby</text>
</a>
</g>
<!-- C gems 1.0&#45;&gt;C ruby 1.8.6.111 -->
<g id="edge97" class="edge"><title>C gems 1.0&#45;&gt;C ruby 1.8.6.111</title>
<path style="fill:none;stroke:black;" d="M465,-220C464,-190 468,-152 487,-126 498,-111 513,-98 529,-88"/>
<polygon style="fill:black;stroke:black;" points="538,-83 531.444,-91.7902 535.378,-84.4569 529.258,-87.8565 535.378,-84.4569 527.073,-83.9228 538,-83 538,-83"/>
</g>
<!-- C gems 1.0&#45;&gt;C ruby -->
<g id="edge99" class="edge"><title>C gems 1.0&#45;&gt;C ruby</title>
<path style="fill:none;stroke:black;stroke-dasharray:1,5;" d="M489,-220C496,-204 504,-186 511,-171"/>
<polygon style="fill:black;stroke:black;" points="515,-162 515.051,-172.966 513.782,-164.741 510.939,-171.138 513.782,-164.741 506.826,-169.31 515,-162 515,-162"/>
</g>
<!-- C perl 5.8.8 -->
<g id="node12" class="node"><title>C perl 5.8.8</title>
<a xlink:href="file:///home/stephens/local/src/cabar/comp/perl/std" xlink:title="Perl &#45; /usr/bin/perl">
<polygon style="fill:none;stroke:black;stroke-dasharray:1,5;" points="999,-864 731,-864 731,-776 999,-776 999,-864"/>
<text text-anchor="middle" x="865" y="-846" style="font-family:Nimbus Roman No9 L;font-weight:regular;font-size:11.34pt;">perl 5.8.8</text>
<text text-anchor="middle" x="865" y="-826" style="font-family:Nimbus Roman No9 L;font-weight:regular;font-size:11.34pt;">/home/stephens/local/src/cabar/comp/perl/std</text>
<text text-anchor="start" x="739" y="-806" style="font-family:Nimbus Roman No9 L;font-weight:regular;font-size:11.34pt;">* bin</text>
<text text-anchor="start" x="739" y="-786" style="font-family:Nimbus Roman No9 L;font-weight:regular;font-size:11.34pt;">* lib/perl</text>
</a>
</g>
<!-- C ruby 1.8.4 -->
<g id="node13" class="node"><title>C ruby 1.8.4</title>
<a xlink:href="file:///home/stephens/local/src/cabar/example/plat/ruby/1.8.4" xlink:title="ruby/1.8.4">
<polygon style="fill:none;stroke:black;stroke-dasharray:1,5;" points="406,-88 298,-88 298,-2.84217e-14 406,-0 406,-88"/>
<text text-anchor="middle" x="352" y="-70" style="font-family:Nimbus Roman No9 L;font-weight:regular;font-size:11.34pt;">ruby 1.8.4</text>
<text text-anchor="middle" x="352" y="-50" style="font-family:Nimbus Roman No9 L;font-weight:regular;font-size:11.34pt;">./plat/ruby/1.8.4</text>
<text text-anchor="start" x="306" y="-30" style="font-family:Nimbus Roman No9 L;font-weight:regular;font-size:11.34pt;">* bin</text>
<text text-anchor="start" x="306" y="-10" style="font-family:Nimbus Roman No9 L;font-weight:regular;font-size:11.34pt;">* lib/ruby</text>
</a>
</g>
<!-- C ruby 1.9 -->
<g id="node15" class="node"><title>C ruby 1.9</title>
<a xlink:href="file:///home/stephens/local/src/cabar/example/plat/ruby/1.9" xlink:title="ruby/1.9">
<polygon style="fill:none;stroke:black;stroke-dasharray:1,5;" points="520,-88 424,-88 424,-2.84217e-14 520,-0 520,-88"/>
<text text-anchor="middle" x="472" y="-70" style="font-family:Nimbus Roman No9 L;font-weight:regular;font-size:11.34pt;">ruby 1.9</text>
<text text-anchor="middle" x="472" y="-50" style="font-family:Nimbus Roman No9 L;font-weight:regular;font-size:11.34pt;">./plat/ruby/1.9</text>
<text text-anchor="start" x="432" y="-30" style="font-family:Nimbus Roman No9 L;font-weight:regular;font-size:11.34pt;">* bin</text>
<text text-anchor="start" x="432" y="-10" style="font-family:Nimbus Roman No9 L;font-weight:regular;font-size:11.34pt;">* lib/ruby</text>
</a>
</g>
<!-- C rubygems 0.9.4 -->
<g id="node16" class="node"><title>C rubygems 0.9.4</title>
<a xlink:href="file:///home/stephens/local/src/cabar/comp/rubygems" xlink:title="Rubygems &#45; Cabar support facets">
<polygon style="fill:none;stroke:black;stroke-dasharray:1,5;" points="1046,-622 766,-622 766,-558 1046,-558 1046,-622"/>
<text text-anchor="middle" x="906" y="-604" style="font-family:Nimbus Roman No9 L;font-weight:regular;font-size:11.34pt;">rubygems 0.9.4</text>
<text text-anchor="middle" x="906" y="-584" style="font-family:Nimbus Roman No9 L;font-weight:regular;font-size:11.34pt;">/home/stephens/local/src/cabar/comp/rubygems</text>
</a>
</g>
<!-- C rubygems 0.9.4&#45;&gt;C cabar 1.0 -->
<g id="edge105" class="edge"><title>C rubygems 0.9.4&#45;&gt;C cabar 1.0</title>
<path style="fill:none;stroke:black;" d="M902,-558C898,-520 890,-456 885,-402 882,-381 881,-359 878,-338"/>
<polygon style="fill:black;stroke:black;" points="877,-328 882.473,-337.503 877.299,-330.985 877.995,-337.95 877.299,-330.985 873.517,-338.398 877,-328 877,-328"/>
</g>
<!-- C rubygems 0.9.4&#45;&gt;C ruby 1.8.6.111 -->
<g id="edge101" class="edge"><title>C rubygems 0.9.4&#45;&gt;C ruby 1.8.6.111</title>
<path style="fill:none;stroke:black;" d="M929,-558C954,-519 992,-450 992,-384 992,-384 992,-384 992,-144 992,-105 904,-79 820,-64"/>
<polygon style="fill:black;stroke:black;" points="810,-62 820.688,-59.5486 812.942,-62.5884 819.806,-63.9612 812.942,-62.5884 818.923,-68.3739 810,-62 810,-62"/>
</g>
<!-- C cabar -->
<g id="node29" class="node"><title>C cabar</title>
<text text-anchor="middle" x="921" y="-380" style="font-family:Nimbus Roman No9 L;font-weight:regular;font-size:11.34pt;">cabar</text>
</g>
<!-- C rubygems 0.9.4&#45;&gt;C cabar -->
<g id="edge107" class="edge"><title>C rubygems 0.9.4&#45;&gt;C cabar</title>
<path style="fill:none;stroke:black;stroke-dasharray:1,5;" d="M908,-558C912,-518 916,-451 919,-412"/>
<polygon style="fill:black;stroke:black;" points="920,-402 923.483,-412.398 919.701,-404.985 919.005,-411.95 919.701,-404.985 914.527,-411.503 920,-402 920,-402"/>
</g>
<!-- C rubygems 0.9.4&#45;&gt;C ruby -->
<g id="edge103" class="edge"><title>C rubygems 0.9.4&#45;&gt;C ruby</title>
<path style="fill:none;stroke:black;stroke-dasharray:1,5;" d="M887,-558C859,-509 805,-413 769,-328 746,-272 770,-241 726,-200 703,-177 612,-158 560,-150"/>
<polygon style="fill:black;stroke:black;" points="550,-148 560.688,-145.549 552.942,-148.588 559.806,-149.961 552.942,-148.588 558.923,-154.374 550,-148 550,-148"/>
</g>
<!-- C c1 -->
<g id="node18" class="node"><title>C c1</title>
<text text-anchor="middle" x="677" y="-926" style="font-family:Nimbus Roman No9 L;font-weight:regular;font-size:11.34pt;">c1</text>
</g>
<!-- C c1&#45;&gt;C c1 1.0 -->
<g id="edge3" class="edge"><title>C c1&#45;&gt;C c1 1.0</title>
<path style="fill:none;stroke:black;stroke-dasharray:1,5;" d="M677,-912C677,-902 677,-888 677,-874"/>
</g>
<!-- C c2&#45;&gt;C c2 1.1 -->
<g id="edge6" class="edge"><title>C c2&#45;&gt;C c2 1.1</title>
<path style="fill:none;stroke:black;stroke-dasharray:1,5;" d="M610,-692C607,-677 604,-654 600,-634"/>
</g>
<!-- C c2&#45;&gt;C c2 1.2 -->
<g id="edge8" class="edge"><title>C c2&#45;&gt;C c2 1.2</title>
<path style="fill:none;stroke:black;stroke-dasharray:1,5;" d="M625,-692C631,-681 639,-667 643,-654 660,-605 667,-547 670,-508"/>
</g>
<!-- C c2&#45;&gt;C c2 1.0 -->
<g id="edge10" class="edge"><title>C c2&#45;&gt;C c2 1.0</title>
<path style="fill:none;stroke:black;stroke-dasharray:1,5;" d="M589,-692C575,-681 557,-667 543,-654 534,-645 525,-634 516,-624"/>
</g>
<!-- C c3&#45;&gt;C c3 2.1 -->
<g id="edge13" class="edge"><title>C c3&#45;&gt;C c3 2.1</title>
<path style="fill:none;stroke:black;stroke-dasharray:1,5;" d="M497,-694C479,-683 456,-669 437,-654 434,-652 431,-649 428,-647"/>
</g>
<!-- C cabar&#45;&gt;C cabar 1.0 -->
<g id="edge16" class="edge"><title>C cabar&#45;&gt;C cabar 1.0</title>
<path style="fill:none;stroke:black;stroke-dasharray:1,5;" d="M913,-366C909,-356 903,-342 897,-328"/>
</g>
<!-- C cnu_config&#45;&gt;C cnu_config 1.0 -->
<g id="edge19" class="edge"><title>C cnu_config&#45;&gt;C cnu_config 1.0</title>
<path style="fill:none;stroke:black;stroke-dasharray:1,5;" d="M214,-366C217,-348 221,-320 224,-298"/>
</g>
<!-- C cnu_customer -->
<g id="node35" class="node"><title>C cnu_customer</title>
<text text-anchor="middle" x="185" y="-926" style="font-family:Nimbus Roman No9 L;font-weight:regular;font-size:11.34pt;">cnu_customer</text>
</g>
<!-- C cnu_customer&#45;&gt;C cnu_customer 1.2 -->
<g id="edge22" class="edge"><title>C cnu_customer&#45;&gt;C cnu_customer 1.2</title>
<path style="fill:none;stroke:black;stroke-dasharray:1,5;" d="M185,-912C185,-902 185,-888 185,-874"/>
</g>
<!-- C cnu_locale&#45;&gt;C cnu_locale 1.1 -->
<g id="edge25" class="edge"><title>C cnu_locale&#45;&gt;C cnu_locale 1.1</title>
<path style="fill:none;stroke:black;stroke-dasharray:1,5;" d="M159,-692C169,-677 182,-654 195,-634"/>
</g>
<!-- C cnu_locale&#45;&gt;C cnu_locale 2.0 -->
<g id="edge27" class="edge"><title>C cnu_locale&#45;&gt;C cnu_locale 2.0</title>
<path style="fill:none;stroke:black;stroke-dasharray:1,5;" d="M136,-692C126,-677 111,-654 97,-634"/>
</g>
<!-- C gems -->
<g id="node42" class="node"><title>C gems</title>
<text text-anchor="middle" x="470" y="-380" style="font-family:Nimbus Roman No9 L;font-weight:regular;font-size:11.34pt;">gems</text>
</g>
<!-- C gems&#45;&gt;C gems 1.0 -->
<g id="edge30" class="edge"><title>C gems&#45;&gt;C gems 1.0</title>
<path style="fill:none;stroke:black;stroke-dasharray:1,5;" d="M470,-366C470,-351 470,-328 470,-308"/>
</g>
<!-- C perl -->
<g id="node45" class="node"><title>C perl</title>
<text text-anchor="middle" x="865" y="-926" style="font-family:Nimbus Roman No9 L;font-weight:regular;font-size:11.34pt;">perl</text>
</g>
<!-- C perl&#45;&gt;C perl 5.8.8 -->
<g id="edge33" class="edge"><title>C perl&#45;&gt;C perl 5.8.8</title>
<path style="fill:none;stroke:black;stroke-dasharray:1,5;" d="M865,-912C865,-899 865,-881 865,-864"/>
</g>
<!-- C ruby&#45;&gt;C ruby 1.8.4 -->
<g id="edge36" class="edge"><title>C ruby&#45;&gt;C ruby 1.8.4</title>
<path style="fill:none;stroke:black;stroke-dasharray:1,5;" d="M496,-131C474,-120 442,-104 415,-88 412,-86 409,-84 406,-82"/>
</g>
<!-- C ruby&#45;&gt;C ruby 1.8.6.111 -->
<g id="edge38" class="edge"><title>C ruby&#45;&gt;C ruby 1.8.6.111</title>
<path style="fill:none;stroke:black;stroke-dasharray:1,5;" d="M550,-126C566,-115 587,-101 607,-88"/>
</g>
<!-- C ruby&#45;&gt;C ruby 1.9 -->
<g id="edge40" class="edge"><title>C ruby&#45;&gt;C ruby 1.9</title>
<path style="fill:none;stroke:black;stroke-dasharray:1,5;" d="M514,-126C508,-115 501,-101 495,-88"/>
</g>
<!-- C rubygems -->
<g id="node53" class="node"><title>C rubygems</title>
<text text-anchor="middle" x="906" y="-706" style="font-family:Nimbus Roman No9 L;font-weight:regular;font-size:11.34pt;">rubygems</text>
</g>
<!-- C rubygems&#45;&gt;C rubygems 0.9.4 -->
<g id="edge43" class="edge"><title>C rubygems&#45;&gt;C rubygems 0.9.4</title>
<path style="fill:none;stroke:black;stroke-dasharray:1,5;" d="M906,-692C906,-673 906,-645 906,-622"/>
</g>
</g>
</svg>
